<svg width="46" height="46" viewBox="0 0 46 46" xmlns="http://www.w3.org/2000/svg" shape-rendering="crispEdges">
  
  <!-- CORRECTION: Replaced the square <rect> with a <circle>. 
       cx/cy are 23 (center) and r is 23 (radius).
       This ensures the black background is perfectly round, 
       making the corners transparent. -->
  <circle cx="23" cy="23" r="23" fill="black"/>

  <!-- The "Steam" Ring Effect (Same as before) -->
  <g fill="white" stroke="none">
    <rect x="22" y="4" width="1" height="1" opacity="0.6" />
    <rect x="24" y="4" width="1" height="1" opacity="0.6" />
    <rect x="20" y="5" width="1" height="1" opacity="0.5" />
    <rect x="26" y="5" width="1" height="1" opacity="0.5" />
    <rect x="23" y="6" width="1" height="1" opacity="0.3" /> 
    <rect x="32" y="7" width="1" height="1" opacity="0.5" />
    <rect x="36" y="10" width="1" height="1" opacity="0.6" />
    <rect x="38" y="12" width="1" height="1" opacity="0.5" />
    <rect x="35" y="13" width="1" height="1" opacity="0.3" />
    <rect x="40" y="20" width="1" height="1" opacity="0.6" />
    <rect x="40" y="26" width="1" height="1" opacity="0.6" />
    <rect x="39" y="23" width="1" height="1" opacity="0.5" />
    <rect x="37" y="23" width="1" height="1" opacity="0.3" />
    <rect x="36" y="36" width="1" height="1" opacity="0.6" />
    <rect x="33" y="38" width="1" height="1" opacity="0.5" />
    <rect x="32" y="35" width="1" height="1" opacity="0.3" />
    <rect x="22" y="41" width="1" height="1" opacity="0.6" />
    <rect x="24" y="41" width="1" height="1" opacity="0.6" />
    <rect x="26" y="40" width="1" height="1" opacity="0.5" />
    <rect x="20" y="40" width="1" height="1" opacity="0.5" />
    <rect x="23" y="39" width="1" height="1" opacity="0.3" />
    <rect x="10" y="36" width="1" height="1" opacity="0.6" />
    <rect x="13" y="38" width="1" height="1" opacity="0.5" />
    <rect x="14" y="35" width="1" height="1" opacity="0.3" />
    <rect x="5" y="20" width="1" height="1" opacity="0.6" />
    <rect x="5" y="26" width="1" height="1" opacity="0.6" />
    <rect x="6" y="23" width="1" height="1" opacity="0.5" />
    <rect x="8" y="23" width="1" height="1" opacity="0.3" />
    <rect x="10" y="10" width="1" height="1" opacity="0.6" />
    <rect x="7" y="12" width="1" height="1" opacity="0.5" />
    <rect x="11" y="13" width="1" height="1" opacity="0.3" />
  </g>

  <!-- Center Steam Lines -->
  <g fill="none" stroke="white" stroke-width="2" stroke-linecap="round">
    <path d="M18,15 C18,13 20,12 20,10"/>
    <path d="M23,16 C23,12 26,11 26,8"/>
    <path d="M28,15 C28,13 30,12 30,10"/>
  </g>
  
  <!-- "SAUNA" Text -->
  <text x="23" y="30" fill="white" font-family="sans-serif" font-weight="900" font-size="11" text-anchor="middle" letter-spacing="0.5">SAUNA</text>
</svg>