<svg width="54" height="54" viewBox="0 0 54 54" fill="none" xmlns="http://www.w3.org/2000/svg">
<rect width="54" height="54" fill="#000000"/>
<path d="M6.75 9C6.75 7.75736 7.75736 6.75 9 6.75H22.5C23.7426 6.75 24.75 7.75736 24.75 9V22.5C24.75 23.7426 23.7426 24.75 22.5 24.75H9C7.75736 24.75 6.75 23.7426 6.75 22.5V9Z" fill="#F4F4F4"/>
<path d="M6.75 31.5C6.75 30.2574 7.75736 29.25 9 29.25H22.5C23.7426 29.25 24.75 30.2574 24.75 31.5V45C24.75 46.2426 23.7426 47.25 22.5 47.25H9C7.75736 47.25 6.75 46.2426 6.75 45V31.5Z" fill="#F4F4F4"/>
<path d="M29.25 9C29.25 7.75736 30.2574 6.75 31.5 6.75H45C46.2426 6.75 47.25 7.75736 47.25 9V22.5C47.25 23.7426 46.2426 24.75 45 24.75H31.5C30.2574 24.75 29.25 23.7426 29.25 22.5V9Z" fill="#F4F4F4"/>
<path fill-rule="evenodd" clip-rule="evenodd" d="M32.175 32.175V44.325H44.325V32.175H32.175ZM31.5 29.25C30.2574 29.25 29.25 30.2574 29.25 31.5V45C29.25 46.2426 30.2574 47.25 31.5 47.25H45C46.2426 47.25 47.25 46.2426 47.25 45V31.5C47.25 30.2574 46.2426 29.25 45 29.25H31.5Z" fill="#F4F4F4"/>
</svg>
